<mxfile host="app.diagrams.net" agent="Mozilla/5.0 (Macintosh; Intel Mac OS X 10_15_7) AppleWebKit/537.36 (KHTML, like Gecko) Chrome/128.0.0.0 Safari/537.36" version="24.7.12">
  <diagram name="第 1 页" id="2RO07gVG7NeoAxC_Dsn3">
    <mxGraphModel dx="1768" dy="650" grid="1" gridSize="10" guides="1" tooltips="1" connect="1" arrows="1" fold="1" page="1" pageScale="1" pageWidth="827" pageHeight="1169" math="0" shadow="0">
      <root>
        <mxCell id="0" />
        <mxCell id="1" parent="0" />
        <mxCell id="cziq57MLG6xuVfQF1vAD-1" value="" style="rounded=1;whiteSpace=wrap;html=1;fillColor=none;dashed=1;strokeWidth=2;sketch=1;curveFitting=1;jiggle=2;" vertex="1" parent="1">
          <mxGeometry x="200" y="120" width="440" height="440" as="geometry" />
        </mxCell>
        <mxCell id="cziq57MLG6xuVfQF1vAD-2" value="&lt;font style=&quot;font-size: 20px;&quot;&gt;&lt;b&gt;A&lt;/b&gt;&lt;/font&gt;" style="rounded=1;whiteSpace=wrap;html=1;fillColor=none;strokeWidth=2;sketch=1;curveFitting=1;jiggle=2;" vertex="1" parent="1">
          <mxGeometry x="520" y="160" width="80" height="60" as="geometry" />
        </mxCell>
        <mxCell id="cziq57MLG6xuVfQF1vAD-3" value="&lt;span style=&quot;font-size: 20px;&quot;&gt;&lt;b&gt;B&lt;/b&gt;&lt;/span&gt;" style="rounded=1;whiteSpace=wrap;html=1;fillColor=none;strokeWidth=2;sketch=1;curveFitting=1;jiggle=2;" vertex="1" parent="1">
          <mxGeometry x="520" y="460" width="80" height="60" as="geometry" />
        </mxCell>
        <mxCell id="cziq57MLG6xuVfQF1vAD-5" style="edgeStyle=orthogonalEdgeStyle;rounded=1;orthogonalLoop=1;jettySize=auto;html=1;entryX=0;entryY=0.5;entryDx=0;entryDy=0;strokeWidth=2;strokeColor=#3333FF;exitX=1;exitY=0.25;exitDx=0;exitDy=0;sketch=1;curveFitting=1;jiggle=2;" edge="1" parent="1" source="cziq57MLG6xuVfQF1vAD-4" target="cziq57MLG6xuVfQF1vAD-2">
          <mxGeometry relative="1" as="geometry">
            <mxPoint x="380" y="320" as="sourcePoint" />
          </mxGeometry>
        </mxCell>
        <mxCell id="cziq57MLG6xuVfQF1vAD-7" style="edgeStyle=orthogonalEdgeStyle;rounded=1;orthogonalLoop=1;jettySize=auto;html=1;exitX=1;exitY=0.75;exitDx=0;exitDy=0;entryX=0;entryY=0.5;entryDx=0;entryDy=0;strokeWidth=2;strokeColor=#FF0000;sketch=1;curveFitting=1;jiggle=2;" edge="1" parent="1" source="cziq57MLG6xuVfQF1vAD-4" target="cziq57MLG6xuVfQF1vAD-3">
          <mxGeometry relative="1" as="geometry">
            <Array as="points">
              <mxPoint x="440" y="355" />
              <mxPoint x="440" y="490" />
            </Array>
          </mxGeometry>
        </mxCell>
        <mxCell id="cziq57MLG6xuVfQF1vAD-4" value="&lt;font style=&quot;font-size: 20px;&quot;&gt;inc_gateway&lt;/font&gt;" style="rounded=1;whiteSpace=wrap;html=1;fillColor=none;strokeWidth=2;sketch=1;curveFitting=1;jiggle=2;" vertex="1" parent="1">
          <mxGeometry x="240" y="310" width="120" height="60" as="geometry" />
        </mxCell>
        <mxCell id="cziq57MLG6xuVfQF1vAD-8" value="&lt;font style=&quot;font-size: 24px;&quot;&gt;&lt;b&gt;转转&lt;/b&gt;&lt;/font&gt;" style="text;html=1;align=center;verticalAlign=middle;resizable=0;points=[];autosize=1;strokeColor=none;fillColor=none;sketch=1;curveFitting=1;jiggle=2;rounded=1;" vertex="1" parent="1">
          <mxGeometry x="410" y="560" width="70" height="40" as="geometry" />
        </mxCell>
        <mxCell id="cziq57MLG6xuVfQF1vAD-10" value="" style="rounded=1;whiteSpace=wrap;html=1;fillColor=none;dashed=1;strokeWidth=2;sketch=1;curveFitting=1;jiggle=2;" vertex="1" parent="1">
          <mxGeometry x="-160" y="120" width="280" height="440" as="geometry" />
        </mxCell>
        <mxCell id="cziq57MLG6xuVfQF1vAD-25" style="edgeStyle=orthogonalEdgeStyle;rounded=1;orthogonalLoop=1;jettySize=auto;html=1;exitX=1;exitY=0.5;exitDx=0;exitDy=0;entryX=0;entryY=0.25;entryDx=0;entryDy=0;strokeWidth=2;strokeColor=#3333FF;sketch=1;curveFitting=1;jiggle=2;" edge="1" parent="1" source="cziq57MLG6xuVfQF1vAD-11" target="cziq57MLG6xuVfQF1vAD-4">
          <mxGeometry relative="1" as="geometry">
            <Array as="points">
              <mxPoint x="60" y="190" />
              <mxPoint x="60" y="325" />
            </Array>
          </mxGeometry>
        </mxCell>
        <mxCell id="cziq57MLG6xuVfQF1vAD-11" value="&lt;font style=&quot;font-size: 20px;&quot;&gt;&lt;b&gt;X&lt;/b&gt;&lt;/font&gt;" style="rounded=1;whiteSpace=wrap;html=1;fillColor=none;strokeWidth=2;sketch=1;curveFitting=1;jiggle=2;" vertex="1" parent="1">
          <mxGeometry x="-80" y="160" width="80" height="60" as="geometry" />
        </mxCell>
        <mxCell id="cziq57MLG6xuVfQF1vAD-23" style="edgeStyle=orthogonalEdgeStyle;rounded=1;orthogonalLoop=1;jettySize=auto;html=1;exitX=1;exitY=0.5;exitDx=0;exitDy=0;entryX=0;entryY=0.75;entryDx=0;entryDy=0;strokeColor=#FF0000;strokeWidth=2;sketch=1;curveFitting=1;jiggle=2;" edge="1" parent="1" source="cziq57MLG6xuVfQF1vAD-12" target="cziq57MLG6xuVfQF1vAD-4">
          <mxGeometry relative="1" as="geometry">
            <Array as="points">
              <mxPoint x="60" y="490" />
              <mxPoint x="60" y="355" />
            </Array>
          </mxGeometry>
        </mxCell>
        <mxCell id="cziq57MLG6xuVfQF1vAD-12" value="&lt;span style=&quot;font-size: 20px;&quot;&gt;&lt;b&gt;Y&lt;/b&gt;&lt;/span&gt;" style="rounded=1;whiteSpace=wrap;html=1;fillColor=none;strokeWidth=2;sketch=1;curveFitting=1;jiggle=2;" vertex="1" parent="1">
          <mxGeometry x="-80" y="460" width="80" height="60" as="geometry" />
        </mxCell>
        <mxCell id="cziq57MLG6xuVfQF1vAD-16" value="&lt;font style=&quot;font-size: 24px;&quot;&gt;&lt;b&gt;红布林&lt;/b&gt;&lt;/font&gt;" style="text;html=1;align=center;verticalAlign=middle;resizable=0;points=[];autosize=1;strokeColor=none;fillColor=none;sketch=1;curveFitting=1;jiggle=2;rounded=1;" vertex="1" parent="1">
          <mxGeometry x="-70" y="565" width="100" height="40" as="geometry" />
        </mxCell>
        <mxCell id="cziq57MLG6xuVfQF1vAD-22" value="&lt;font color=&quot;#3333ff&quot; style=&quot;font-size: 20px;&quot;&gt;a.zhuaninc.com/*&lt;/font&gt;" style="edgeLabel;html=1;align=center;verticalAlign=middle;resizable=0;points=[];sketch=1;curveFitting=1;jiggle=2;rounded=1;" vertex="1" connectable="0" parent="1">
          <mxGeometry x="150" y="306" as="geometry" />
        </mxCell>
        <mxCell id="cziq57MLG6xuVfQF1vAD-26" value="&lt;font color=&quot;#ff0000&quot; style=&quot;font-size: 20px;&quot;&gt;b.zhuaninc.com/*&lt;/font&gt;" style="edgeLabel;html=1;align=center;verticalAlign=middle;resizable=0;points=[];sketch=1;curveFitting=1;jiggle=2;rounded=1;" vertex="1" connectable="0" parent="1">
          <mxGeometry x="150" y="370" as="geometry" />
        </mxCell>
      </root>
    </mxGraphModel>
  </diagram>
</mxfile>
